<svg width="50" height="50" viewBox="0 0 50 50" fill="none" xmlns="http://www.w3.org/2000/svg">
<path d="M25.001 3.13107C25.001 3.13107 37.895 2.55451 44.7311 15.4687H23.9038C23.9038 15.4687 19.9733 15.3425 16.6158 20.0938C15.6513 22.088 14.6146 24.1423 15.778 28.1908C14.102 25.3616 6.88037 12.8319 6.88037 12.8319C6.88037 12.8319 11.9741 3.64161 25.0008 3.13107H25.001Z" fill="#EF3F36"/>
<path d="M44.062 35.9153C44.062 35.9153 38.1122 47.3338 23.4761 46.7691C25.2845 43.6517 33.8925 28.7974 33.8925 28.7974C33.8925 28.7974 35.9723 25.4697 33.5188 20.196C32.2709 18.364 30.9989 16.4478 26.9 15.4266C30.1974 15.3967 44.695 15.4266 44.695 15.4266C44.695 15.4266 50.1262 24.4186 44.062 35.9153Z" fill="#FCD900"/>
<path d="M6.03036 36.0053C6.03036 36.0053 -0.920117 25.1633 6.8923 12.8137C8.69475 15.9312 17.3029 30.7856 17.3029 30.7856C17.3029 30.7856 19.1596 34.2455 24.9646 34.7618C27.1771 34.5998 29.4797 34.4616 32.4216 31.4403C30.7998 34.2995 23.5237 46.7933 23.5237 46.7933C23.5237 46.7933 12.9866 46.9855 6.03018 36.0053H6.03036Z" fill="#61BC5B"/>
<path d="M23.4702 46.8772L26.3998 34.696C26.3998 34.696 29.6189 34.4435 32.3197 31.4944C30.6437 34.4317 23.4702 46.8772 23.4702 46.8772Z" fill="#5AB055"/>
<path d="M15.1875 25.1391C15.1875 19.7694 19.558 15.4146 24.947 15.4146C30.3361 15.4146 34.7066 19.7694 34.7066 25.1391C34.7066 30.5091 30.3361 34.8637 24.947 34.8637C19.558 34.8578 15.1875 30.5091 15.1875 25.1391Z" fill="white"/>
<path d="M16.8208 25.1394C16.8208 20.6705 20.4559 17.0425 24.9469 17.0425C29.4317 17.0425 33.0728 20.6646 33.0728 25.1394C33.0728 29.6084 29.4379 33.2365 24.9469 33.2365C20.4619 33.2365 16.8208 29.6084 16.8208 25.1394Z" fill="url(#paint0_linear_735_4541)"/>
<path d="M44.6889 15.4326L32.6266 18.9585C32.6266 18.9585 30.8062 16.2974 26.894 15.4326C30.2879 15.4145 44.6889 15.4326 44.6889 15.4326Z" fill="#EACA05"/>
<path d="M15.5429 27.7464C13.8488 24.8211 6.88037 12.8318 6.88037 12.8318L15.8141 21.6375C15.8141 21.6375 14.8977 23.5177 15.2414 26.2086L15.5427 27.7464H15.5429Z" fill="#DF3A32"/>
<defs>
<linearGradient id="paint0_linear_735_4541" x1="24.9465" y1="17.1568" x2="24.9465" y2="32.749" gradientUnits="userSpaceOnUse">
<stop stop-color="#86BBE5"/>
<stop offset="1" stop-color="#1072BA"/>
</linearGradient>
</defs>
</svg>
