<svg width="50" height="50" viewBox="0 0 50 50" fill="none" xmlns="http://www.w3.org/2000/svg">
<path d="M30.6122 24.8011C30.6122 20.625 26.2721 13.4162 16.4944 13.4162C6.71679 13.4162 3.125 21.5696 3.125 25.0497C3.125 12.6207 13.2518 3.125 25.2744 3.125C37.2969 3.125 46.875 12.1236 46.875 21.2713C46.875 29.4247 40.739 32.2585 35.7504 32.2585C32.458 32.2585 28.7165 31.1648 28.7165 29.4247C28.7165 28.0824 30.6122 28.0824 30.6122 24.8011Z" fill="url(#paint0_linear_735_4566)"/>
<path d="M16.4944 13.4163C26.2721 13.4163 30.6122 20.6251 30.6122 24.8012C30.6122 24.8337 30.612 24.8658 30.6116 24.8976C30.5623 22.1165 28.6845 19.4816 24.9751 19.4816C20.2858 19.4816 13.9503 25.8452 14.7983 33.7501C15.4772 40.0776 20.8345 48.5654 32.458 45.5825C32.458 45.5825 30.263 46.8751 24.127 46.8751C13.2519 46.8751 3.125 36.9319 3.125 25.5469C3.125 25.2454 3.1296 24.9495 3.13888 24.6594C3.38961 20.9974 7.06619 13.4163 16.4944 13.4163Z" fill="url(#paint1_linear_735_4566)"/>
<path d="M16.4944 13.4163C26.2721 13.4163 30.6122 20.6251 30.6122 24.8012C30.6122 24.8337 30.612 24.8658 30.6116 24.8976C30.5623 22.1165 28.6845 19.4816 24.9751 19.4816C20.2858 19.4816 13.9503 25.8452 14.7983 33.7501C15.4772 40.0776 20.8345 48.5654 32.458 45.5825C32.458 45.5825 30.263 46.8751 24.127 46.8751C13.2519 46.8751 3.125 36.9319 3.125 25.5469C3.125 25.2454 3.1296 24.9495 3.13888 24.6594C3.38961 20.9974 7.06619 13.4163 16.4944 13.4163Z" fill="url(#paint2_radial_735_4566)"/>
<path d="M31.1038 46.0931C37.3312 44.3943 41.7801 39.0946 42.5847 38.0255C43.4826 36.8323 43.7321 36.0866 43.4826 35.838C43.2332 35.5894 42.884 35.6391 41.9861 36.0866C41.0881 36.534 35.8002 38.7215 29.764 36.882C23.7278 35.0425 19.5873 30.2698 19.5873 24.9999C19.5873 20.9232 23.0793 19.4814 24.9749 19.4814C20.2857 19.4814 13.9501 25.8451 14.7982 33.7499C15.477 40.0775 20.8344 48.5653 32.4578 45.5823C32.4578 45.5823 32.0526 45.8209 31.1038 46.0931Z" fill="#0E458A"/>
<path d="M31.1038 46.0931C37.3312 44.3943 41.7801 39.0946 42.5847 38.0255C43.4826 36.8323 43.7321 36.0866 43.4826 35.838C43.2332 35.5894 42.884 35.6391 41.9861 36.0866C41.0881 36.534 35.8002 38.7215 29.764 36.882C23.7278 35.0425 19.5873 30.2698 19.5873 24.9999C19.5873 20.9232 23.0793 19.4814 24.9749 19.4814C20.2857 19.4814 13.9501 25.8451 14.7982 33.7499C15.477 40.0775 20.8344 48.5653 32.4578 45.5823C32.4578 45.5823 32.0526 45.8209 31.1038 46.0931Z" fill="url(#paint3_radial_735_4566)"/>
<defs>
<linearGradient id="paint0_linear_735_4566" x1="44.3308" y1="28.9773" x2="1.54405" y2="18.8695" gradientUnits="userSpaceOnUse">
<stop stop-color="#3BCC50"/>
<stop offset="0.489583" stop-color="#2ABAD6"/>
<stop offset="1" stop-color="#7DCFE7"/>
</linearGradient>
<linearGradient id="paint1_linear_735_4566" x1="17.7915" y1="13.4163" x2="17.7915" y2="46.8751" gradientUnits="userSpaceOnUse">
<stop stop-color="#035989"/>
<stop offset="0.265625" stop-color="#1175B6"/>
<stop offset="1" stop-color="#0470CF"/>
</linearGradient>
<radialGradient id="paint2_radial_735_4566" cx="0" cy="0" r="1" gradientUnits="userSpaceOnUse" gradientTransform="translate(17.0931 29.6734) rotate(59.2143) scale(14.8149 14.839)">
<stop stop-color="#1284D8"/>
<stop offset="0.813899" stop-color="#1170B2" stop-opacity="0.767762"/>
<stop offset="1" stop-color="#0E649B" stop-opacity="0.65"/>
</radialGradient>
<radialGradient id="paint3_radial_735_4566" cx="0" cy="0" r="1" gradientUnits="userSpaceOnUse" gradientTransform="translate(29.1654 33.7499) rotate(77.9982) scale(11.9952 12.9504)">
<stop stop-color="#104890"/>
<stop offset="0.69943" stop-color="#12529E" stop-opacity="0.70624"/>
<stop offset="1" stop-color="#0E4584" stop-opacity="0.58"/>
</radialGradient>
</defs>
</svg>
