<svg width="50" height="50" viewBox="0 0 50 50" fill="none" xmlns="http://www.w3.org/2000/svg">
<path d="M45.2977 16.7601C44.3462 14.4647 42.4176 11.9865 40.9037 11.2037C42.136 13.6252 42.8487 16.054 43.1212 17.8663C43.1212 17.8663 43.1212 17.8791 43.1258 17.9028C40.6494 11.7153 36.4496 9.21977 33.0199 3.78761C32.8458 3.51358 32.6726 3.23955 32.5031 2.94634C32.4074 2.78101 32.3299 2.63121 32.2625 2.48963C32.1203 2.21496 32.0105 1.92468 31.9353 1.62461C31.9359 1.61036 31.9312 1.5964 31.9221 1.58543C31.913 1.57446 31.9001 1.56726 31.886 1.56524C31.8726 1.56159 31.8585 1.56159 31.845 1.56524C31.8414 1.56689 31.838 1.56904 31.835 1.57163C31.8295 1.57163 31.8241 1.57802 31.8186 1.57985L31.8277 1.56798C26.3254 4.79786 24.4588 10.7726 24.2875 13.7623C22.0887 13.9129 19.9864 14.7243 18.2547 16.0906C18.0737 15.9372 17.8845 15.7939 17.6878 15.6613C17.1888 13.9105 17.1677 12.0575 17.6267 10.2958C15.3764 11.3234 13.6265 12.9447 12.3541 14.3797H12.3441C11.4755 13.2772 11.5366 9.64086 11.5858 8.8818C11.5758 8.8343 10.9387 9.21338 10.8567 9.27092C10.0902 9.8189 9.37375 10.4339 8.7157 11.1087C7.96688 11.8696 7.28275 12.6918 6.67046 13.5668C5.26175 15.5676 4.26272 17.8283 3.7311 20.2184C3.72107 20.2659 3.71196 20.3152 3.70193 20.3636C3.66092 20.5563 3.51236 21.5237 3.48593 21.7337V21.7822C3.29225 22.7817 3.17162 23.794 3.125 24.8111V24.9234C3.125 37.0465 12.932 46.875 25.0285 46.875C35.8626 46.875 44.8575 38.9921 46.6193 28.6374C46.6558 28.357 46.6858 28.0739 46.7186 27.7907C47.1543 24.0255 46.6703 20.0686 45.2977 16.7601ZM20.0511 33.9436C20.1532 33.992 20.2498 34.0459 20.3547 34.0934L20.3692 34.1025C20.2644 34.0513 20.1578 33.9984 20.0521 33.9436H20.0511ZM43.1276 17.9129V17.8919V17.9156V17.9129Z" fill="url(#paint0_linear_735_4553)"/>
<path d="M45.2974 16.7602C44.3459 14.4648 42.4173 11.9867 40.9034 11.2039C42.1357 13.6254 42.8484 16.0542 43.1209 17.8664V17.9112C45.1881 23.5269 44.0615 29.2377 42.4392 32.727C39.9291 38.1253 33.8526 43.6589 24.34 43.3894C14.071 43.0971 5.01774 35.4508 3.32704 25.4442C3.01898 23.8649 3.32704 23.0638 3.48199 21.7823C3.29332 22.7697 3.22132 23.0556 3.12744 24.8112V24.9236C3.12744 37.0466 12.9344 46.8751 25.0309 46.8751C35.8651 46.8751 44.8599 38.9922 46.6217 28.6376C46.6582 28.3571 46.6883 28.074 46.7211 27.7908C47.154 24.0257 46.67 20.0687 45.2974 16.7602Z" fill="url(#paint1_radial_735_4553)"/>
<path d="M45.2974 16.7602C44.3459 14.4648 42.4173 11.9867 40.9034 11.2039C42.1357 13.6254 42.8484 16.0542 43.1209 17.8664V17.9112C45.1881 23.5269 44.0615 29.2377 42.4392 32.727C39.9291 38.1253 33.8526 43.6589 24.34 43.3894C14.071 43.0971 5.01774 35.4508 3.32704 25.4442C3.01898 23.8649 3.32704 23.0638 3.48199 21.7823C3.29332 22.7697 3.22132 23.0556 3.12744 24.8112V24.9236C3.12744 37.0466 12.9344 46.8751 25.0309 46.8751C35.8651 46.8751 44.8599 38.9922 46.6217 28.6376C46.6582 28.3571 46.6883 28.074 46.7211 27.7908C47.154 24.0257 46.67 20.0687 45.2974 16.7602Z" fill="url(#paint2_radial_735_4553)"/>
<path d="M34.6532 19.3398C34.7015 19.3736 34.7444 19.4074 34.7899 19.4412C34.2402 18.463 33.5553 17.5675 32.7556 16.7813C25.9472 9.95796 30.971 1.98555 31.8178 1.57999L31.8269 1.56812C26.3246 4.798 24.458 10.7727 24.2866 13.7624C24.5418 13.745 24.7961 13.7231 25.0559 13.7231C29.1619 13.7231 32.7383 15.9866 34.6532 19.3398Z" fill="url(#paint3_radial_735_4553)"/>
<path d="M25.0693 20.7027C25.0338 21.2508 23.1088 23.1324 22.4353 23.1324C16.2066 23.1324 15.1958 26.9085 15.1958 26.9085C15.4692 30.0891 17.6804 32.7079 20.3554 34.0936C20.4775 34.1566 20.6006 34.2132 20.72 34.2699C20.9342 34.3612 21.1493 34.4526 21.3634 34.5338C22.2808 34.8581 23.2415 35.0429 24.2135 35.0819C35.1306 35.5953 37.2469 21.9998 29.3676 18.0519C31.3846 17.7003 33.4791 18.5141 34.6484 19.3371C32.7344 15.9839 29.1571 13.7205 25.0511 13.7205C24.7913 13.7205 24.537 13.7424 24.2818 13.7597C22.0847 13.9123 19.9844 14.7246 18.2546 16.0908C18.5891 16.3749 18.9664 16.753 19.7602 17.5368C21.2495 19.0092 25.0611 20.5246 25.0693 20.7027Z" fill="url(#paint4_radial_735_4553)"/>
<path d="M25.0693 20.7027C25.0338 21.2508 23.1088 23.1324 22.4353 23.1324C16.2066 23.1324 15.1958 26.9085 15.1958 26.9085C15.4692 30.0891 17.6804 32.7079 20.3554 34.0936C20.4775 34.1566 20.6006 34.2132 20.72 34.2699C20.9342 34.3612 21.1493 34.4526 21.3634 34.5338C22.2808 34.8581 23.2415 35.0429 24.2135 35.0819C35.1306 35.5953 37.2469 21.9998 29.3676 18.0519C31.3846 17.7003 33.4791 18.5141 34.6484 19.3371C32.7344 15.9839 29.1571 13.7205 25.0511 13.7205C24.7913 13.7205 24.537 13.7424 24.2818 13.7597C22.0847 13.9123 19.9844 14.7246 18.2546 16.0908C18.5891 16.3749 18.9664 16.753 19.7602 17.5368C21.2495 19.0092 25.0611 20.5246 25.0693 20.7027Z" fill="url(#paint5_radial_735_4553)"/>
<path d="M17.2369 15.3609C17.4146 15.476 17.5604 15.5728 17.6926 15.6614C17.1935 13.9106 17.1724 12.0576 17.6315 10.2959C15.3812 11.3235 13.6312 12.9448 12.3589 14.3798C12.4619 14.3771 15.6391 14.3196 17.2369 15.3609Z" fill="url(#paint6_radial_735_4553)"/>
<path d="M3.32772 25.4442C5.01842 35.4508 14.0716 43.0971 24.348 43.3894C33.8606 43.6589 39.9334 38.1254 42.4472 32.727C44.0695 29.2368 45.196 23.5269 43.1289 17.9112V17.8692C43.1289 17.8746 43.1289 17.8819 43.1335 17.9057C43.91 22.9907 41.3297 27.9169 37.2958 31.2481C37.2916 31.2575 37.2876 31.2669 37.2839 31.2765C29.4228 37.6915 21.9008 35.1467 20.3778 34.1081C20.2721 34.0569 20.1655 34.004 20.0597 33.9492C15.4762 31.7569 13.5831 27.5689 13.9887 23.98C10.1197 23.98 8.79994 20.7081 8.79994 20.7081C8.79994 20.7081 12.2743 18.2254 16.8533 20.3847C21.0942 22.3851 25.0771 20.709 25.0771 20.7081C25.0689 20.53 21.2573 19.01 19.7708 17.5421C18.977 16.7584 18.5996 16.3803 18.2651 16.0962C18.0841 15.9428 17.8949 15.7995 17.6982 15.6669C17.5679 15.5755 17.4248 15.4842 17.2425 15.3664C15.6448 14.325 12.4675 14.3826 12.3627 14.3853H12.3527C11.4841 13.2828 11.5452 9.64647 11.5944 8.88741C11.5844 8.83991 10.9473 9.21898 10.8652 9.27653C10.0988 9.82451 9.38233 10.4395 8.72429 11.1143C7.97546 11.8752 7.29134 12.6974 6.67904 13.5724C5.27034 15.5732 4.2713 17.8339 3.73969 20.224C3.72237 20.266 2.9431 23.6758 3.32772 25.4442Z" fill="url(#paint7_radial_735_4553)"/>
<path d="M32.7557 16.7811C33.5554 17.5673 34.2402 18.4628 34.79 19.441C34.9039 19.5268 35.0134 19.6182 35.1181 19.7151C40.0835 24.2968 37.486 30.7831 37.2882 31.2489C41.3222 27.9177 43.9024 22.9915 43.1259 17.9065C40.6495 11.7153 36.4497 9.21977 33.02 3.78761C32.8459 3.51358 32.6727 3.23955 32.5032 2.94634C32.4075 2.78101 32.33 2.63121 32.2626 2.48963C32.1205 2.21496 32.0106 1.92468 31.9354 1.62461C31.936 1.61036 31.9313 1.5964 31.9222 1.58543C31.9131 1.57446 31.9002 1.56726 31.8862 1.56524C31.8727 1.56159 31.8586 1.56159 31.8451 1.56524C31.8415 1.56689 31.8381 1.56904 31.8351 1.57163C31.8296 1.57163 31.8242 1.57802 31.8187 1.57985C30.9711 1.98541 25.9473 9.95782 32.7557 16.7811Z" fill="url(#paint8_radial_735_4553)"/>
<path d="M35.1162 19.7104C35.0115 19.6136 34.902 19.5222 34.7881 19.4364C34.7435 19.4026 34.697 19.3688 34.6514 19.335C33.482 18.5129 31.3876 17.6982 29.3706 18.0498C37.249 21.9977 35.1336 35.5932 24.2165 35.0798C23.2445 35.0408 22.2838 34.856 21.3664 34.5317C21.1523 34.4514 20.9372 34.3628 20.723 34.2678C20.599 34.2111 20.476 34.1545 20.3584 34.0915L20.373 34.1006C21.896 35.1419 29.418 37.6867 37.2791 31.269C37.2791 31.269 37.2836 31.2571 37.2909 31.2407C37.4859 30.783 40.0835 24.2968 35.1162 19.7104Z" fill="url(#paint9_radial_735_4553)"/>
<path d="M15.1957 26.9085C15.1957 26.9085 16.2065 23.1324 22.4352 23.1324C23.1087 23.1324 25.0337 21.2489 25.0692 20.7027C25.1047 20.1564 21.0863 22.3797 16.8454 20.3793C12.2664 18.22 8.79199 20.7027 8.79199 20.7027C8.79199 20.7027 10.1117 23.9746 13.9808 23.9746C13.5752 27.5634 15.4682 31.7479 20.0518 33.9437C20.1539 33.9922 20.2505 34.0461 20.3553 34.0935C17.6802 32.7106 15.4719 30.0891 15.1957 26.9085Z" fill="url(#paint10_radial_735_4553)"/>
<path d="M45.2977 16.7601C44.3462 14.4647 42.4176 11.9865 40.9037 11.2037C42.136 13.6252 42.8487 16.054 43.1212 17.8663C43.1212 17.8663 43.1212 17.8791 43.1258 17.9028C40.6494 11.7153 36.4496 9.21977 33.0199 3.78761C32.8458 3.51358 32.6726 3.23955 32.5031 2.94634C32.4074 2.78101 32.3299 2.63121 32.2625 2.48963C32.1203 2.21496 32.0105 1.92468 31.9353 1.62461C31.9359 1.61036 31.9312 1.5964 31.9221 1.58543C31.913 1.57446 31.9001 1.56726 31.886 1.56524C31.8726 1.56159 31.8585 1.56159 31.845 1.56524C31.8414 1.56689 31.838 1.56904 31.835 1.57163C31.8295 1.57163 31.8241 1.57802 31.8186 1.57985L31.8277 1.56798C26.3254 4.79786 24.4588 10.7726 24.2875 13.7623C24.5427 13.7449 24.797 13.723 25.0567 13.723C29.1627 13.723 32.7391 15.9865 34.6541 19.3396C33.4847 18.5176 31.3902 17.7028 29.3732 18.0545C37.2516 22.0023 35.1362 35.5978 24.2191 35.0844C23.2471 35.0454 22.2865 34.8606 21.3691 34.5364C21.1549 34.456 20.9398 34.3674 20.7256 34.2724C20.6016 34.2158 20.4786 34.1591 20.361 34.0961L20.3756 34.1052C20.2699 34.0541 20.1632 34.0011 20.0575 33.9463C20.1596 33.9947 20.2562 34.0486 20.361 34.0961C17.6805 32.7104 15.4721 30.0889 15.196 26.9083C15.196 26.9083 16.2067 23.1322 22.4354 23.1322C23.109 23.1322 25.0339 21.2487 25.0695 20.7025C25.0613 20.5244 21.2497 19.0044 19.7631 17.5365C18.9693 16.7528 18.5919 16.3747 18.2575 16.0906C18.0765 15.9372 17.8872 15.7939 17.6905 15.6613C17.1915 13.9105 17.1704 12.0575 17.6295 10.2958C15.3792 11.3234 13.6292 12.9447 12.3569 14.3797H12.3468C11.4782 13.2772 11.5393 9.64086 11.5885 8.8818C11.5785 8.8343 10.9414 9.21338 10.8594 9.27092C10.0929 9.8189 9.37648 10.4339 8.71844 11.1087C7.96961 11.8696 7.28549 12.6918 6.67319 13.5668C5.26449 15.5676 4.26545 17.8283 3.73383 20.2184C3.72381 20.2659 3.71469 20.3152 3.70467 20.3636C3.66365 20.5563 3.47772 21.5374 3.4522 21.7474C3.4522 21.7639 3.4522 21.7319 3.4522 21.7474C3.28155 22.7611 3.17228 23.7842 3.125 24.8111V24.9234C3.125 37.0465 12.932 46.875 25.0285 46.875C35.8626 46.875 44.8575 38.9921 46.6193 28.6374C46.6558 28.357 46.6858 28.0739 46.7186 27.7907C47.1543 24.0255 46.6703 20.0686 45.2977 16.7601ZM43.1249 17.8873V17.911V17.8873Z" fill="url(#paint11_linear_735_4553)"/>
<defs>
<linearGradient id="paint0_linear_735_4553" x1="42.3985" y1="8.5822" x2="5.95925" y2="43.6621" gradientUnits="userSpaceOnUse">
<stop offset="0.05" stop-color="#FFF44F"/>
<stop offset="0.11" stop-color="#FFE847"/>
<stop offset="0.22" stop-color="#FFC830"/>
<stop offset="0.37" stop-color="#FF980E"/>
<stop offset="0.4" stop-color="#FF8B16"/>
<stop offset="0.46" stop-color="#FF672A"/>
<stop offset="0.53" stop-color="#FF3647"/>
<stop offset="0.7" stop-color="#E31587"/>
</linearGradient>
<radialGradient id="paint1_radial_735_4553" cx="0" cy="0" r="1" gradientUnits="userSpaceOnUse" gradientTransform="translate(40.7175 6.59195) scale(45.6635 45.7637)">
<stop offset="0.13" stop-color="#FFBD4F"/>
<stop offset="0.19" stop-color="#FFAC31"/>
<stop offset="0.25" stop-color="#FF9D17"/>
<stop offset="0.28" stop-color="#FF980E"/>
<stop offset="0.4" stop-color="#FF563B"/>
<stop offset="0.47" stop-color="#FF3750"/>
<stop offset="0.71" stop-color="#F5156C"/>
<stop offset="0.78" stop-color="#EB0878"/>
<stop offset="0.86" stop-color="#E50080"/>
</radialGradient>
<radialGradient id="paint2_radial_735_4553" cx="0" cy="0" r="1" gradientUnits="userSpaceOnUse" gradientTransform="translate(24.032 25.3008) scale(45.6635 45.7637)">
<stop offset="0.3" stop-color="#960E18"/>
<stop offset="0.35" stop-color="#B11927" stop-opacity="0.74"/>
<stop offset="0.43" stop-color="#DB293D" stop-opacity="0.34"/>
<stop offset="0.5" stop-color="#F5334B" stop-opacity="0.09"/>
<stop offset="0.53" stop-color="#FF3750" stop-opacity="0"/>
</radialGradient>
<radialGradient id="paint3_radial_735_4553" cx="0" cy="0" r="1" gradientUnits="userSpaceOnUse" gradientTransform="translate(29.5383 -3.79371) scale(33.0812 33.1538)">
<stop offset="0.13" stop-color="#FFF44F"/>
<stop offset="0.25" stop-color="#FFDC3E"/>
<stop offset="0.51" stop-color="#FF9D12"/>
<stop offset="0.53" stop-color="#FF980E"/>
</radialGradient>
<radialGradient id="paint4_radial_735_4553" cx="0" cy="0" r="1" gradientUnits="userSpaceOnUse" gradientTransform="translate(18.9819 37.255) scale(21.7421 21.7898)">
<stop offset="0.35" stop-color="#3A8EE6"/>
<stop offset="0.47" stop-color="#5C79F0"/>
<stop offset="0.67" stop-color="#9059FF"/>
<stop offset="1" stop-color="#C139E6"/>
</radialGradient>
<radialGradient id="paint5_radial_735_4553" cx="0" cy="0" r="1" gradientUnits="userSpaceOnUse" gradientTransform="translate(24.6879 19.862) rotate(-13.9265) scale(11.5206 13.5602)">
<stop offset="0.21" stop-color="#9059FF" stop-opacity="0"/>
<stop offset="0.28" stop-color="#8C4FF3" stop-opacity="0.06"/>
<stop offset="0.75" stop-color="#7716A8" stop-opacity="0.45"/>
<stop offset="0.97" stop-color="#6E008B" stop-opacity="0.6"/>
</radialGradient>
<radialGradient id="paint6_radial_735_4553" cx="0" cy="0" r="1" gradientUnits="userSpaceOnUse" gradientTransform="translate(23.4555 4.71941) scale(15.6419 15.6763)">
<stop stop-color="#FFE226"/>
<stop offset="0.12" stop-color="#FFDB27"/>
<stop offset="0.3" stop-color="#FFC82A"/>
<stop offset="0.5" stop-color="#FFA930"/>
<stop offset="0.73" stop-color="#FF7E37"/>
<stop offset="0.79" stop-color="#FF7139"/>
</radialGradient>
<radialGradient id="paint7_radial_735_4553" cx="0" cy="0" r="1" gradientUnits="userSpaceOnUse" gradientTransform="translate(35.7509 -5.22324) scale(66.7357 66.8822)">
<stop offset="0.11" stop-color="#FFF44F"/>
<stop offset="0.46" stop-color="#FF980E"/>
<stop offset="0.62" stop-color="#FF5634"/>
<stop offset="0.72" stop-color="#FF3647"/>
<stop offset="0.9" stop-color="#E31587"/>
</radialGradient>
<radialGradient id="paint8_radial_735_4553" cx="0" cy="0" r="1" gradientUnits="userSpaceOnUse" gradientTransform="translate(29.2998 2.08397) rotate(84.2447) scale(48.7494 31.9598)">
<stop stop-color="#FFF44F"/>
<stop offset="0.06" stop-color="#FFE847"/>
<stop offset="0.17" stop-color="#FFC830"/>
<stop offset="0.3" stop-color="#FF980E"/>
<stop offset="0.36" stop-color="#FF8B16"/>
<stop offset="0.45" stop-color="#FF672A"/>
<stop offset="0.57" stop-color="#FF3647"/>
<stop offset="0.74" stop-color="#E31587"/>
</radialGradient>
<radialGradient id="paint9_radial_735_4553" cx="0" cy="0" r="1" gradientUnits="userSpaceOnUse" gradientTransform="translate(23.0872 10.525) scale(41.6632 41.7547)">
<stop offset="0.14" stop-color="#FFF44F"/>
<stop offset="0.48" stop-color="#FF980E"/>
<stop offset="0.59" stop-color="#FF5634"/>
<stop offset="0.66" stop-color="#FF3647"/>
<stop offset="0.9" stop-color="#E31587"/>
</radialGradient>
<radialGradient id="paint10_radial_735_4553" cx="0" cy="0" r="1" gradientUnits="userSpaceOnUse" gradientTransform="translate(34.0851 12.9696) scale(45.6006 45.7007)">
<stop offset="0.09" stop-color="#FFF44F"/>
<stop offset="0.23" stop-color="#FFE141"/>
<stop offset="0.51" stop-color="#FFAF1E"/>
<stop offset="0.63" stop-color="#FF980E"/>
</radialGradient>
<linearGradient id="paint11_linear_735_4553" x1="41.961" y1="8.39403" x2="10.9538" y2="39.3342" gradientUnits="userSpaceOnUse">
<stop offset="0.17" stop-color="#FFF44F" stop-opacity="0.8"/>
<stop offset="0.27" stop-color="#FFF44F" stop-opacity="0.63"/>
<stop offset="0.49" stop-color="#FFF44F" stop-opacity="0.22"/>
<stop offset="0.6" stop-color="#FFF44F" stop-opacity="0"/>
</linearGradient>
</defs>
</svg>
