<svg width="50" height="50" viewBox="0 0 50 50" fill="none" xmlns="http://www.w3.org/2000/svg">
<path d="M44.4136 16.3355C51.0995 0.913563 37.2498 3.1723 36.4786 3.32615C33.5444 3.91139 30.8297 4.85085 28.3258 6.0419C18.7836 5.49259 10.1293 12.2696 8.04132 21.5576C12.9667 15.9259 16.4136 13.6536 18.4779 12.7444C12.416 18.2719 6.42084 25.4997 4.21219 33.5435C-1.34286 53.7749 16.0755 45.3172 18.5114 44.0324C21.1343 45.3531 24.0869 46.0964 27.2107 46.0964C35.7618 46.0964 43.0373 40.5331 45.7455 32.7643H35.4122C33.8832 35.397 30.9396 37.1802 27.5579 37.1802C22.6031 37.1802 18.5866 33.3541 18.5866 28.6342H46.7148C47.2466 24.4203 46.4479 20.0686 44.4136 16.3355ZM43.203 6.32851C44.8966 7.49359 46.2548 9.32303 43.9221 15.4844C41.6847 11.8172 38.3187 8.94041 34.318 7.35926C36.1379 6.46354 40.6449 4.56877 43.203 6.32851ZM7.21272 43.9915C5.83315 42.5497 5.58937 39.0382 8.63332 32.6396C10.1693 37.1409 13.2346 40.9124 17.1966 43.306C15.2262 44.4115 9.99511 46.9003 7.21272 43.9915ZM18.5432 23.1532C18.7004 18.5658 22.6176 14.8929 27.4304 14.8929C32.2431 14.8929 36.1605 18.5658 36.3178 23.1532H18.5432Z" fill="#1EBBEE"/>
</svg>
